<svg xmlns="http://www.w3.org/2000/svg" style="display: none;"><symbol id="phone" viewBox="0 0 512 512.00011"><title>phone</title><path d="m232.484375 390.324219c-3.902344 3.898437-3.902344 10.230469 0 14.136719 3.910156 3.902343 10.238281 3.902343 14.136719 0 3.910156-3.90625 3.910156-10.238282 0-14.136719-3.898438-3.910157-10.226563-3.910157-14.136719 0zm0 0"/><path d="m488.917969 372.957031-75.921875-64.558593c-.351563-.296876-.722656-.570313-1.109375-.816407-19.917969-12.679687-45.492188-9.871093-62.191407 6.824219l-41.394531 41.390625c-2.867187 2.871094-7.144531 3.71875-10.894531 2.171875-46.742188-19.335938-85.140625-48.445312-114.128906-86.511719-22.105469-29.027343-30.074219-52.09375-31.125-55.34375-.125-.695312-.324219-1.386719-.605469-2.0625-1.550781-3.75-.703125-8.019531 2.171875-10.886719l41.390625-41.402343c16.699219-16.699219 19.503906-42.273438 6.824219-62.191407-.101563-.160156-.207032-.316406-.316406-.472656l-54.828126-76.191406c-17.25-26.761719-54.824218-30.804688-77.375-8.257812l-8.289062 8.289062c-.003906.007812-.011719.015625-.019531.019531l-29.59375 29.59375c-35.289063 35.292969-41.0625 88.324219-16.691407 153.371094 20.875 55.71875 62.664063 116.699219 117.667969 171.703125 56.304688 56.304688 118.933594 98.867188 176.347657 119.847656 56.828124 20.761719 117.277343 23.320313 160.0625-19.46875l27.910156-27.90625c22.449218-22.453125 18.53125-59.78125-7.890625-77.140625zm-88.3125-48.847656 75.855469 64.503906c.347656.296875.71875.570313 1.105468.816407 16.203125 10.316406 18.65625 32.972656 5.097656 46.527343l-2.070312 2.074219-129.378906-96.867188 12.621094-12.617187c9.863281-9.867187 24.894531-11.652344 36.769531-4.4375zm-270.523438-290.214844c.101563.160157.207031.320313.316407.472657l54.804687 76.164062c7.445313 11.917969 5.722656 27.132812-4.234375 37.089844l-12.230469 12.234375-87.53125-128.71875 2.347657-2.347657c13.613281-13.613281 36.25-11.039062 46.527343 5.105469zm185.613281 444.792969c-54.734374-20-114.777343-60.914062-169.066406-115.203125-53.03125-53.027344-93.191406-111.476563-113.085937-164.578125-14.933594-39.859375-24.953125-95.152344 12.109375-132.210938l21.160156-21.164062 87.53125 128.71875-14.761719 14.769531c-8.398437 8.382813-11.039062 20.789063-6.847656 31.835938 3.15625 12.953125 17.679687 39.839843 32.332031 59.652343 21.5625 29.15625 60.699219 69.464844 124.695313 95.941407 11.246093 4.652343 24.070312 2.097656 32.679687-6.507813l14.488282-14.492187 129.378906 96.867187-11.550782 11.546875c-39.730468 39.734375-97.550781 29.992188-139.0625 14.824219zm0 0"/><path d="m213.71875 366.449219c-10.5625-9.261719-28.832031-25.191407-38.453125-35.089844-23.59375-24.246094-48.347656-53.636719-63.066406-74.871094-3.144531-4.539062-9.375-5.671875-13.914063-2.523437-4.539062 3.144531-5.667968 9.375-2.523437 13.914062 18.5625 26.78125 45.835937 57.554688 65.167969 77.421875 10.15625 10.453125 28.582031 26.523438 39.601562 36.183594 4.144531 3.632813 10.460938 3.234375 14.113281-.925781 3.640625-4.148438 3.226563-10.46875-.925781-14.109375zm0 0"/></symbol><symbol id="mail" viewBox="0 0 512 512"><title>mail</title><path d="M467,61H45C20.218,61,0,81.196,0,106v300c0,24.72,20.128,45,45,45h422c24.72,0,45-20.128,45-45V106 C512,81.28,491.872,61,467,61z M460.786,91L256.954,294.833L51.359,91H460.786z M30,399.788V112.069l144.479,143.24L30,399.788z M51.213,421l144.57-144.57l50.657,50.222c5.864,5.814,15.327,5.795,21.167-0.046L317,277.213L460.787,421H51.213z M482,399.787 L338.213,256L482,112.212V399.787z"/></symbol><symbol id="place" viewBox="0 0 512 512"><title>place</title><g> <g> <path d="M425.951,89.021C386.864,32.451,324.917,0,256.006,0S125.148,32.451,86.061,89.021 c-38.895,56.284-47.876,127.541-24.072,190.496c6.367,17.192,16.488,33.895,30.01,49.547l150.378,176.634 c3.401,3.998,8.384,6.302,13.629,6.302c5.245,0,10.228-2.303,13.629-6.302l150.336-176.586 c13.582-15.742,23.69-32.427,30.004-49.481C473.827,216.562,464.846,145.305,425.951,89.021z M416.451,267.093 c-4.869,13.158-12.818,26.167-23.613,38.68c-0.03,0.03-0.06,0.06-0.084,0.096L256.006,466.487L119.174,305.768 c-10.789-12.502-18.738-25.51-23.655-38.794c-19.686-52.065-12.215-110.981,19.991-157.592 c32.307-46.76,83.519-73.578,140.496-73.578c56.976,0,108.182,26.817,140.49,73.578 C428.708,155.993,436.185,214.909,416.451,267.093z"/> </g> </g><g> <g> <path d="M256.006,106.219c-55.276,0-100.252,44.97-100.252,100.252s44.97,100.252,100.252,100.252s100.252-44.97,100.252-100.252 C356.258,151.195,311.282,106.219,256.006,106.219z M256.006,270.918c-35.536,0-64.448-28.912-64.448-64.448 c0-35.536,28.912-64.448,64.448-64.448c35.536,0,64.448,28.912,64.448,64.448S291.542,270.918,256.006,270.918z"/> </g> </g></symbol><symbol id="clock" viewBox="0 0 512 512"><title>clock</title><path d="m256 512c-141.164062 0-256-114.835938-256-256s114.835938-256 256-256 256 114.835938 256 256-114.835938 256-256 256zm0-480c-123.519531 0-224 100.480469-224 224s100.480469 224 224 224 224-100.480469 224-224-100.480469-224-224-224zm0 0"/><path d="m368 394.667969c-4.097656 0-8.191406-1.558594-11.308594-4.695313l-112-112c-3.007812-3.007812-4.691406-7.082031-4.691406-11.304687v-149.335938c0-8.832031 7.167969-16 16-16s16 7.167969 16 16v142.699219l107.308594 107.308594c6.25 6.25 6.25 16.382812 0 22.632812-3.117188 3.136719-7.210938 4.695313-11.308594 4.695313zm0 0"/></symbol></svg>